# xmcd CD database file
#
# Track frame offsets:
#	150
#	27476
#	48200
#	85950
#	110400
#	146876
#	167283
#	195057
#	222481
#	245429
#	283271
#	310952
#	327971
#
# Disc length: 4672 seconds
#
# Revision: 0
# Processed by: cddbd v1.5.2PL0 Copyright (c) Steve Scherf et al.
# Submitted via: CDex 2.09
#
DISCID=b8123e0d
DTITLE=Musica Jazz (Magazine) - John Abercrombie - Flashback
DYEAR=2018
DGENRE=Jazz
TTITLE0=Clint
TTITLE1=Love song
TTITLE2=Ethereggae
TTITLE3=Parasol
TTITLE4=Furs on ice
TTITLE5=Backward glance
TTITLE6=The cat's back
TTITLE7=Blues connotation
TTITLE8=Paramour (quartet)
TTITLE9=Samurai Hee-Haw
TTITLE10=Out of Towner
TTITLE11=Paramour (solo)
TTITLE12=Agitato
EXTD=YEAR: 2018
EXTT0=
EXTT1=
EXTT2=
EXTT3=
EXTT4=
EXTT5=
EXTT6=
EXTT7=
EXTT8=
EXTT9=
EXTT10=
EXTT11=
EXTT12=
PLAYORDER=
